<svg width="413" height="147" viewBox="0 0 413 147" fill="none" xmlns="http://www.w3.org/2000/svg">
<path d="M390.401 144.196C381.956 142.588 364.465 147.011 357.227 139.572C354.413 135.35 354.212 128.313 351.397 123.488C345.969 116.854 334.911 120.271 326.869 119.266C321.642 119.467 316.213 119.065 312.594 120.473C305.356 122.081 307.367 136.154 302.542 140.98C299.928 143.794 294.701 143.995 289.876 144.196C281.029 144.397 268.966 144.8 271.379 132.938C278.416 96.1455 291.886 58.1471 309.176 23.7676C363.46 -51.0229 401.056 78.2521 409.701 119.869C414.728 139.572 412.717 144.397 392.813 144.196H390.401ZM329.684 90.5161V90.3151C332.9 90.3151 336.318 90.5161 339.535 90.3151C342.35 90.114 343.154 89.5109 342.35 86.8972C339.535 77.85 336.117 69.0038 332.096 60.5597C331.493 59.5545 331.091 58.1471 329.482 58.3482C328.075 58.3482 327.673 59.5545 327.271 60.5597C323.25 69.2048 320.435 78.051 317.419 86.8972C316.615 89.5109 317.218 90.3151 320.234 90.5161C323.25 90.5161 326.467 90.5161 329.684 90.5161Z" fill="black"/>
<path d="M210.457 59.152C211.261 44.6764 208.446 22.762 212.065 7.28113C215.684 0.646488 227.948 3.86329 236.191 3.05909C243.63 3.05909 250.868 0.847547 254.889 6.27588C259.714 15.9263 256.497 28.3914 257.1 38.8459C255.291 66.7919 264.137 100.568 244.233 123.287C219.906 156.46 164.215 153.042 143.909 117.456C140.089 108.61 133.455 95.9441 138.682 87.701C143.306 83.2779 153.56 85.0874 160.797 84.6853C167.432 85.0874 176.077 83.68 179.897 87.5C185.727 97.3514 183.918 117.858 196.986 123.689C218.901 130.525 207.843 74.0296 210.457 61.1625V59.152Z" fill="black"/>
<path d="M73.8062 59.152C74.6104 44.6764 71.7957 22.762 75.4146 7.28113C79.0335 0.646488 91.2975 3.86329 99.5406 3.05909C106.979 3.05909 114.217 0.847547 118.238 6.27588C123.063 15.9263 119.847 28.3914 120.45 38.8459C118.64 66.7919 127.486 100.568 107.583 123.287C83.2555 156.46 27.5648 153.042 7.25874 117.456C3.4388 108.61 -3.19584 95.9441 2.03145 87.701C6.6556 83.2779 16.9091 85.0874 24.1469 84.6853C30.7816 85.0874 39.4267 83.68 43.2466 87.5C49.0771 97.3514 47.2676 117.858 60.3359 123.689C82.2503 130.525 71.1926 74.0296 73.8062 61.1625V59.152Z" fill="black"/>
</svg>
